<svg preserveAspectRatio="none" width="100%" height="100%" overflow="visible" style="display: block;" viewBox="0 0 16.4004 16.4002" fill="none" xmlns="http://www.w3.org/2000/svg">
<g id="Union">
<path d="M15.9515 5.29244C14.4749 1.39534 10.2401 -0.819051 6.11499 0.282385C1.72123 1.45557 -0.894957 5.95039 0.281879 10.327C1.45847 14.7028 5.9776 17.2908 10.3705 16.1179C13.6341 15.2465 15.915 12.5437 16.3923 9.41912C16.4506 9.03695 16.1882 8.67982 15.806 8.62145C15.4238 8.56307 15.0667 8.82556 15.0083 9.20773C14.6126 11.7986 12.7202 14.0415 10.0093 14.7653C6.35552 15.7408 2.60804 13.5865 1.63386 9.96348C0.659935 6.34149 2.82329 2.61035 6.47615 1.635C9.57879 0.806564 12.7501 2.23555 14.2319 4.90399L13.3718 4.95636C12.9859 4.97985 12.6921 5.31172 12.7156 5.6976C12.7391 6.08349 13.0709 6.37726 13.4568 6.35377L15.3394 6.23916C15.5615 6.22564 15.7639 6.10735 15.8847 5.9205C16.0055 5.73365 16.0303 5.50051 15.9515 5.29244Z" fill="var(--fill-0, white)" fill-opacity="0.8"/>
<path d="M8.90037 5.2C8.90037 4.8134 8.58697 4.5 8.20037 4.5C7.81377 4.5 7.50037 4.8134 7.50037 5.2V8.19998C7.50037 8.38564 7.57412 8.56368 7.70539 8.69496L9.20539 10.195C9.47876 10.4683 9.92197 10.4683 10.1953 10.195C10.4687 9.92159 10.4687 9.47838 10.1953 9.20501L8.90037 7.91004V5.2Z" fill="var(--fill-0, white)" fill-opacity="0.8"/>
</g>
</svg>
